# xmcd CD database file
#
# Track frame offsets:
#	150
#	25610
#	42621
#	60401
#	93941
#	130071
#	150268
#	170118
#	201439
#	227482
#	248488
#	282485
#
# Disc length: 4078 seconds
#
# Revision: 0
# Processed by: cddbd v1.5.2PL0 Copyright (c) Steve Scherf et al.
# Submitted via: CDex 1.51
#
DISCID=980fec0c
DTITLE=Esperanza Spalding - Esperanza
DYEAR=2008
DGENRE=Jazz
TTITLE0=Ponta De Areia
TTITLE1=I Know You Know
TTITLE2=Fall In
TTITLE3=I Adore You
TTITLE4=Body and Soul
TTITLE5=She Got To You
TTITLE6=Precious
TTITLE7=Mela
TTITLE8=Love In Time
TTITLE9=Espera
TTITLE10=If That's True
TTITLE11=Samba Em Preludio
EXTD=YEAR: 2008
EXTT0=
EXTT1=
EXTT2=
EXTT3=
EXTT4=
EXTT5=
EXTT6=
EXTT7=
EXTT8=
EXTT9=
EXTT10=
EXTT11=
PLAYORDER=
